<svg version="1.1" viewBox="0.0 0.0 600.0 226.0" fill="none" stroke="none" stroke-linecap="square" stroke-miterlimit="10" xmlns:xlink="http://www.w3.org/1999/xlink" xmlns="http://www.w3.org/2000/svg"><clipPath id="p.0"><path d="m0 0l600.0 0l0 226.0l-600.0 0l0 -226.0z" clip-rule="nonzero"/></clipPath><g clip-path="url(#p.0)"><path fill="#000000" fill-opacity="0.0" d="m0 0l600.0 0l0 226.0l-600.0 0z" fill-rule="evenodd"/><path fill="#000000" fill-opacity="0.0" d="m171.9042 99.46982l0 25.669289l0 0c0 13.874794 -5.5117493 27.181313 -15.322708 36.99227c-9.810959 9.810944 -23.117462 15.322693 -36.992256 15.322693l-52.314964 0c-5.950928E-4 0 -0.001083374 -4.8828125E-4 -0.001083374 -0.001083374l0.001083374 -130.29813l0 0c0 -5.9890747E-4 4.8828125E-4 -0.001083374 0.0010910034 -0.001083374l52.313873 0.001083374l0 0c28.892754 0 52.314964 23.42221 52.314964 52.314964z" fill-rule="evenodd"/><path stroke="#ffffff" stroke-width="24.0" stroke-linejoin="round" stroke-linecap="butt" d="m171.9042 99.46982l0 25.669289l0 0c0 13.874794 -5.5117493 27.181313 -15.322708 36.99227c-9.810959 9.810944 -23.117462 15.322693 -36.992256 15.322693l-52.314964 0c-5.950928E-4 0 -0.001083374 -4.8828125E-4 -0.001083374 -0.001083374l0.001083374 -130.29813l0 0c0 -5.9890747E-4 4.8828125E-4 -0.001083374 0.0010910034 -0.001083374l52.313873 0.001083374l0 0c28.892754 0 52.314964 23.42221 52.314964 52.314964z" fill-rule="evenodd"/><path fill="#ffffff" d="m348.62366 141.37373l0 13.057724c-2.6344604 2.9780731 -5.230713 5.240265 -7.7888184 6.7865753c-2.5390015 1.5463104 -5.326172 2.3194733 -8.361511 2.3194733c-3.6080627 0 -6.4334106 -0.91633606 -8.476074 -2.748993c-2.0235596 -1.8326721 -3.0353699 -4.352585 -3.0353699 -7.559738c0 -1.8899384 0.35317993 -3.5603333 1.0595093 -5.0112c0.72543335 -1.4699402 1.8613281 -2.7203522 3.4076233 -3.7512207c1.5462952 -1.0308838 3.5507812 -1.8040314 6.0134277 -2.3194733c2.4626465 -0.51542664 5.4407043 -0.7731476 8.934235 -0.7731476zm-124.30612 -75.68328c-0.57270813 0 -1.0595093 0.16226196 -1.4604034 0.48680115c-0.40089417 0.3054428 -0.7445221 0.8208771 -1.0308838 1.5463104c-0.28634644 0.706337 -0.50587463 1.6608505 -0.65859985 2.863533c-0.13363647 1.2026901 -0.20045471 2.6630936 -0.20045471 4.3812103c0 1.6608582 0.06681824 3.0830765 0.20045471 4.26667c0.15272522 1.1645126 0.37225342 2.1094742 0.65859985 2.8349075c0.2863617 0.706337 0.6299896 1.2313156 1.0308838 1.5749435c0.40089417 0.3436203 0.8876953 0.51543427 1.4604034 0.51543427l27.833572 0l0 89.60007c0 0.57270813 0.18136597 1.08815 0.5440674 1.5463104c0.38182068 0.4581604 1.002243 0.8304291 1.8612976 1.1167755c0.8590698 0.2863617 2.0140228 0.5154419 3.4648895 0.68725586c1.4699402 0.17181396 3.2930603 0.25772095 5.4693604 0.25772095c2.1762695 0 3.9898376 -0.08590698 5.4407043 -0.25772095c1.4699402 -0.17181396 2.6344604 -0.40089417 3.4935303 -0.68725586c0.8590393 -0.28634644 1.4699402 -0.6586151 1.8326416 -1.1167755c0.38180542 -0.4581604 0.5727234 -0.9736023 0.5727234 -1.5463104l0 -89.60007l27.833588 0c0.5154114 0 0.9831238 -0.17181396 1.4031067 -0.51543427c0.4390869 -0.34362793 0.80181885 -0.86860657 1.0881653 -1.5749435c0.28634644 -0.72543335 0.4963379 -1.6703949 0.62997437 -2.8349075c0.15270996 -1.1835938 0.22909546 -2.605812 0.22909546 -4.26667c0 -1.7181168 -0.0763855 -3.1785202 -0.22909546 -4.3812103c-0.13363647 -1.2026825 -0.34362793 -2.157196 -0.62997437 -2.863533c-0.28634644 -0.7254257 -0.64907837 -1.2408676 -1.0881653 -1.5463104c-0.4199829 -0.32453918 -0.8876953 -0.48680115 -1.4031067 -0.48680115zm111.67792 26.716797c-3.3789673 0 -6.6624756 0.2768097 -9.850555 0.8304291c-3.1689758 0.534523 -6.0993347 1.2313156 -8.791046 2.0903778c-2.691742 0.8590622 -5.0398254 1.794487 -7.0443115 2.8062668c-2.004486 0.99269867 -3.4075928 1.9090271 -4.2094116 2.748993c-0.80178833 0.8208847 -1.3458557 1.7467575 -1.6322021 2.7776337c-0.28634644 1.0308762 -0.4295349 2.4340057 -0.4295349 4.2093964c0 1.3172302 0.08590698 2.5199127 0.25772095 3.608055c0.17181396 1.08815 0.4104309 2.0044785 0.71588135 2.7490005c0.32452393 0.74451447 0.72543335 1.3172226 1.2026978 1.7181168c0.4963379 0.4009018 1.0595093 0.6013489 1.6894836 0.6013489c0.9163208 0 2.0999146 -0.40089417 3.5507812 -1.2026901c1.4699402 -0.80178833 3.2930603 -1.6894836 5.4693604 -2.663086c2.1762695 -0.9736023 4.6770935 -1.8612976 7.502472 -2.6630936c2.844452 -0.80178833 6.0706787 -1.2026825 9.678741 -1.2026825c2.748993 0 5.0493774 0.28635406 6.901123 0.8590622c1.8708496 0.57270813 3.3598938 1.4604034 4.4671326 2.663086c1.1263123 1.2026901 1.9281006 2.710823 2.405365 4.524391c0.4963379 1.794487 0.74450684 3.8944092 0.74450684 6.299782l0 4.6389313l-7.473816 0c-6.815216 0 -12.800018 0.51542664 -17.954376 1.5463104c-5.1543884 1.0308685 -9.4687805 2.6248932 -12.943207 4.7821045c-3.4553223 2.1381073 -6.061157 4.8584595 -7.817444 8.161072c-1.7372131 3.2835236 -2.6058044 7.158844 -2.6058044 11.625961c0 4.1235046 0.68722534 7.731552 2.061737 10.824173c1.3744812 3.0926208 3.3026123 5.6888885 5.7843323 7.7888184c2.500824 2.080841 5.4502563 3.646225 8.848328 4.6961975c3.4171753 1.0690613 7.158844 1.6035919 11.225067 1.6035919c4.925293 0 9.401947 -0.9449768 13.429993 -2.8349152c4.0471497 -1.8899231 7.6456604 -4.5243835 10.795532 -7.903351l0 6.0993347c0 0.80178833 0.23861694 1.4317627 0.71588135 1.8899231c0.4963379 0.45817566 1.3267822 0.78271484 2.491272 0.9736023c1.1835938 0.21000671 3.0639954 0.31500244 5.6411743 0.31500244c2.405365 0 4.2189636 -0.10499573 5.440735 -0.31500244c1.2408447 -0.19088745 2.147644 -0.51542664 2.720337 -0.9736023c0.5727234 -0.4581604 0.8590698 -1.0881348 0.8590698 -1.8899231l0 -51.54367c0 -5.2689056 -0.62997437 -9.82193 -1.8899231 -13.659065c-1.2599487 -3.837143 -3.2644348 -6.9679413 -6.0134277 -9.392403c-2.748993 -2.44355 -6.2615967 -4.247574 -10.537811 -5.4120865c-4.257141 -1.1835938 -9.392426 -1.7753906 -15.405853 -1.7753906z" fill-rule="evenodd"/><path fill="#ffffff" d="m418.46533 92.40725c-4.8107605 0 -9.153778 0.60134125 -13.029083 1.8040314c-3.8562317 1.2026825 -7.1302185 2.8921661 -9.82196 5.0684586c-2.6917114 2.1762848 -4.7534485 4.801201 -6.185211 7.8747253c-1.4317932 3.0544434 -2.1476746 6.414322 -2.1476746 10.079651c0 3.608055 0.5249939 6.700676 1.5749512 9.277855c1.0690613 2.5771866 2.4721985 4.782112 4.2094116 6.614769c1.7562866 1.8326721 3.7321472 3.3789825 5.9275208 4.6389313c2.214447 1.259964 4.476654 2.3767395 6.78656 3.3503418c2.32901 0.9736023 4.591217 1.8612976 6.7865906 2.663086c2.2144775 0.80178833 4.1903076 1.6608582 5.9275208 2.577179c1.7563171 0.91633606 3.1594543 1.9949341 4.2094116 3.2358093c1.0690613 1.2217712 1.6035767 2.6917114 1.6035767 4.409836c0 1.4890442 -0.28634644 2.8062744 -0.8590698 3.9516907c-0.5726929 1.145401 -1.4222107 2.0903778 -2.5485535 2.8349c-1.1072083 0.7445221 -2.4244385 1.317215 -3.9516602 1.7181244c-1.5081482 0.40089417 -3.2358093 0.6013336 -5.183014 0.6013336c-3.0926208 0 -5.860718 -0.37225342 -8.30426 -1.1167755c-2.424469 -0.7445221 -4.553009 -1.5463104 -6.385681 -2.4053802c-1.8326721 -0.85905457 -3.3694153 -1.6417542 -4.6102905 -2.3480988c-1.2217712 -0.72543335 -2.147644 -1.0881348 -2.777649 -1.0881348c-0.5154114 0 -0.9449463 0.10499573 -1.2885742 0.31498718c-0.34362793 0.19090271 -0.62997437 0.5917969 -0.8590698 1.2026825c-0.22906494 0.5917969 -0.4008789 1.3935852 -0.5154419 2.4053802c-0.11453247 0.9926758 -0.17181396 2.319458 -0.17181396 3.980301c0 2.5199127 0.17181396 4.42894 0.5154419 5.7270813c0.34362793 1.2790375 0.83044434 2.2240143 1.4604187 2.8349c0.62997437 0.5917969 1.6322021 1.2313232 3.0067139 1.9185638c1.3744812 0.68725586 3.0926208 1.3649597 5.154358 2.0331116c2.061737 0.6490631 4.390747 1.1835938 6.98703 1.6035919c2.6153564 0.43907166 5.354828 0.6586151 8.218353 0.6586151c4.753479 0 9.16333 -0.5631561 13.229523 -1.6894989c4.066223 -1.1072235 7.588379 -2.7776184 10.566467 -5.0111847c2.9780884 -2.233551 5.2784424 -5.0111847 6.901123 -8.332886c1.6417542 -3.321701 2.4626465 -7.158844 2.4626465 -11.511429c0 -3.493515 -0.5440674 -6.5097656 -1.6322327 -9.048767c-1.0881348 -2.5581055 -2.5198975 -4.753479 -4.295288 -6.586136c-1.7753906 -1.8326721 -3.7989502 -3.3789825 -6.070709 -4.6389313c-2.252655 -1.259964 -4.543457 -2.3576508 -6.8724976 -3.2930603c-2.309906 -0.9545212 -4.6007385 -1.8326721 -6.872467 -2.6344604c-2.252655 -0.80178833 -4.2666626 -1.6608505 -6.0420837 -2.5771866c-1.7753906 -0.91632843 -3.2071533 -1.9758377 -4.295288 -3.1785202c-1.0881348 -1.2026901 -1.6322327 -2.6917267 -1.6322327 -4.4671173c0 -1.1454163 0.22909546 -2.21447 0.68725586 -3.207161c0.4581604 -1.0117874 1.1454163 -1.8899384 2.0617676 -2.6344604c0.9163208 -0.74451447 2.0903625 -1.3172226 3.5221252 -1.7181168c1.4317932 -0.40089417 3.1212769 -0.60134125 5.0684814 -0.60134125c2.748993 0 5.1925354 0.3054428 7.330658 0.91632843c2.157196 0.5917969 4.047119 1.2313232 5.6698 1.9185715c1.6417542 0.68724823 3.0067139 1.336319 4.0948486 1.9472046c1.0881348 0.5917969 1.8899231 0.8876953 2.405365 0.8876953c0.4581604 0 0.8590698 -0.095451355 1.2026978 -0.28635406c0.34362793 -0.20999146 0.61087036 -0.60134125 0.80178833 -1.1740494c0.20999146 -0.57270813 0.3531494 -1.3458633 0.4295349 -2.3194656c0.09542847 -0.9736023 0.14315796 -2.2335587 0.14315796 -3.779869c0 -1.3172302 -0.047729492 -2.414917 -0.14315796 -3.293068c-0.0763855 -0.8972397 -0.17181396 -1.6417542 -0.28637695 -2.2335587c-0.11453247 -0.6108856 -0.28634644 -1.1263199 -0.5154114 -1.5463104c-0.22909546 -0.43907166 -0.6204529 -0.86859894 -1.1740723 -1.2885895c-0.5345154 -0.43907166 -1.4317627 -0.95451355 -2.6917114 -1.5463104c-1.2599487 -0.6108856 -2.8062744 -1.1740494 -4.6389465 -1.6894836c-1.8326416 -0.5154419 -3.8848572 -0.9449692 -6.1565857 -1.2885971c-2.252655 -0.3436203 -4.581665 -0.51543427 -6.98703 -0.51543427z" fill-rule="evenodd"/><path fill="#ffffff" d="m472.41437 57.271652c-2.1190186 0 -3.8657837 0.08590698 -5.240265 0.25772095c-1.3745117 0.17181015 -2.4817505 0.4199829 -3.3217163 0.7445183c-0.82089233 0.3054428 -1.4031372 0.68724823 -1.7467651 1.1454124c-0.34362793 0.45816803 -0.5154419 0.9736061 -0.5154419 1.5463104l0 112.96653c0 0.57270813 0.17181396 1.078598 0.5154419 1.5176697c0.34362793 0.4199829 0.9258728 0.77316284 1.7467651 1.0595093c0.8399658 0.2863617 1.9472046 0.49635315 3.3217163 0.62997437c1.3744812 0.15272522 3.1212463 0.22909546 5.240265 0.22909546c2.1190186 0 3.8657532 -0.07637024 5.240265 -0.22909546c1.3745117 -0.13362122 2.4721985 -0.34361267 3.2930603 -0.62997437c0.8399658 -0.28634644 1.4317627 -0.63952637 1.7753906 -1.0595093c0.34362793 -0.43907166 0.5154419 -0.94496155 0.5154419 -1.5176697l0 -40.547684l25.51413 40.37587c0.4008789 0.7445221 0.8590393 1.3458557 1.3744812 1.8040314c0.5154419 0.4581604 1.2408752 0.8208771 2.1762695 1.0881348c0.9545288 0.24816895 2.1572266 0.4295349 3.6080933 0.54408264c1.4699097 0.11453247 3.3789673 0.17181396 5.727051 0.17181396c2.2908325 0 4.1521606 -0.07637024 5.5839233 -0.22909546c1.4317627 -0.13362122 2.5581055 -0.32452393 3.3789673 -0.57270813c0.8399658 -0.2672577 1.4126587 -0.6108856 1.7181396 -1.0308685c0.32452393 -0.43907166 0.48675537 -0.94496155 0.48675537 -1.5176697c0 -0.68725586 -0.16223145 -1.4413147 -0.48675537 -2.2621918c-0.30548096 -0.8399811 -0.80181885 -1.8326721 -1.4890747 -2.9780884l-25.943634 -40.11815l22.421478 -25.4282c0.8590698 -1.08815 1.4985962 -2.1190186 1.9185791 -3.0926208c0.4390869 -0.9736023 0.6586304 -1.8899384 0.6586304 -2.7490005c0 -0.62997437 -0.17181396 -1.154953 -0.5154419 -1.5749435c-0.34362793 -0.43907166 -0.9640503 -0.80178833 -1.8613281 -1.0881424c-0.8781128 -0.28635406 -2.052185 -0.49634552 -3.5221558 -0.629982c-1.4508057 -0.15271759 -3.2357788 -0.2290802 -5.3547974 -0.2290802c-2.1762695 0 -3.9707642 0.07636261 -5.383423 0.2290802c-1.3936157 0.13363647 -2.5676575 0.34362793 -3.5221558 0.629982c-0.9354248 0.28635406 -1.6895142 0.68724823 -2.262207 1.2026825c-0.5726929 0.5154419 -1.0881348 1.1167831 -1.5462952 1.8040314l-22.67923 30.496674l0 -67.26449c0 -0.5727043 -0.17181396 -1.0881424 -0.5154419 -1.5463104c-0.34362793 -0.45816422 -0.9354248 -0.83996964 -1.7753906 -1.1454124c-0.8208618 -0.32453537 -1.9185486 -0.57270813 -3.2930603 -0.7445183c-1.3745117 -0.17181396 -3.1212463 -0.25772095 -5.240265 -0.25772095z" fill-rule="evenodd"/><path fill="#ffffff" d="m91.02352 107.43481l0 0c3.3919907 -3.966011 8.894089 -3.9682388 12.289284 -0.0049743652l20.082855 23.443016l0 0c1.6304321 1.9032288 2.5470123 4.485092 2.5481033 7.177597c0.0010910034 2.6924896 -0.91339874 5.2750854 -2.542282 7.1796417l0 0l0 0c-3.3919907 3.9660034 -8.894089 3.9682312 -12.289284 0.0049743652l-20.082855 -23.443024c-3.3952026 -3.9632645 -3.3978043 -10.39122 -0.005821228 -14.357231z" fill-rule="evenodd"/><path fill="#ffffff" d="m112.58007 143.81084l0 0c-3.391983 -3.9660187 -3.3890762 -10.393707 0.0064926147 -14.356644l49.341354 -57.585922c1.6306 -1.9030685 3.841507 -2.9716187 6.1463165 -2.970581c2.3048096 0.001045227 4.51474 1.0715942 6.143631 2.976143l0 0l0 0c3.391983 3.966011 3.3890839 10.3937 -0.0064849854 14.356644l-49.341347 57.585915c-3.3955765 3.9629517 -8.897972 3.9604645 -12.289963 -0.005554199z" fill-rule="evenodd"/></g></svg>